<svg width="378" height="86" fill="none" xmlns="http://www.w3.org/2000/svg"><path d="M13.8 68.81H7.36L5.8 76.13H.84l6.52-27.88a4.215 4.215 0 01-1.12-2.92c0-1.174.413-2.174 1.24-3 .853-.854 1.867-1.28 3.04-1.28s2.173.426 3 1.28c.853.826 1.28 1.826 1.28 3 0 1.12-.387 2.093-1.16 2.92l7.04 27.88h-5.24l-1.64-7.32zm-3.28-22.28c.347 0 .627-.107.84-.32.213-.24.32-.534.32-.88 0-.347-.107-.627-.32-.84-.213-.214-.493-.32-.84-.32s-.64.106-.88.32c-.213.213-.32.493-.32.84 0 .346.107.64.32.88.24.213.533.32.88.32zM8.4 64.13h4.36l-2.28-8.64-2.08 8.64zm25.614-.6c0-1.067-.307-1.92-.92-2.56-.587-.667-1.387-1-2.4-1-.827 0-1.72.24-2.68.72v15.44h-4.36V56.09h3.88l.52.24c1.12-.374 2.28-.56 3.48-.56 1.333 0 2.493.24 3.48.72 1.066.48 1.893 1.2 2.48 2.16.613.96.92 2.173.92 3.64v13.84h-4.4v-12.6zm20 0c0-1.067-.307-1.92-.92-2.56-.587-.667-1.387-1-2.4-1-.827 0-1.72.24-2.68.72v15.44h-4.36V56.09h3.88l.52.24c1.12-.374 2.28-.56 3.48-.56 1.333 0 2.493.24 3.48.72 1.066.48 1.893 1.2 2.48 2.16.613.96.92 2.173.92 3.64v13.84h-4.4v-12.6zm23.96 12.6c-2.88.293-4.96.44-6.24.44-2.8 0-5.027-.52-6.68-1.56-1.654-1.04-2.48-2.92-2.48-5.64v-3.32c0-2.64.92-4.414 2.76-5.32.88-.427 1.88-.64 3-.64.986 0 1.96.133 2.92.4.96.266 1.733.56 2.32.88 0-.987-.4-1.654-1.2-2-.8-.374-1.827-.56-3.08-.56l.36-3.04c2.56 0 4.44.413 5.64 1.24 1.226.8 1.973 1.76 2.24 2.88.293 1.12.44 2.56.44 4.32v11.92zm-4.4-10.08c-.48-.347-1.16-.667-2.04-.96-.854-.32-1.64-.48-2.36-.48-.64 0-1.16.16-1.56.48-.4.32-.6.826-.6 1.52v2.2c0 2.426 1.426 3.64 4.28 3.64.826 0 1.586-.067 2.28-.2v-6.2zm23.29 3.8c0 1.36-.28 2.506-.84 3.44a5.46 5.46 0 01-2.28 2.12c-.853.426-1.72.733-2.6.92-.853.186-1.773.28-2.76.28-.986 0-2.346-.094-4.08-.28l-2.2-.2v-28h4.4v8c1.174-.267 2.24-.4 3.2-.4 1.36 0 2.614.266 3.76.8 2.267 1.04 3.4 2.96 3.4 5.76v7.56zm-4.36-6.32c0-1.2-.333-2.054-1-2.56-.666-.534-1.48-.8-2.44-.8a5.63 5.63 0 00-1.52.2c-.48.133-.826.293-1.04.48v11.44c.454.133 1 .2 1.64.2 1.12 0 2.12-.2 3-.6.907-.427 1.36-1.08 1.36-1.96v-6.4zm23.974 5.24c0 2.24-.614 4.093-1.84 5.56-1.227 1.466-3.08 2.2-5.56 2.2-2.48 0-4.36-.734-5.64-2.2-1.254-1.494-1.88-3.347-1.88-5.56v-5.28c0-2.534.64-4.467 1.92-5.8 1.306-1.36 3.173-2.04 5.6-2.04 2.32 0 4.133.706 5.44 2.12 1.306 1.386 1.96 3.293 1.96 5.72v5.28zm-4.36-5.28c0-1.414-.294-2.334-.88-2.76-.587-.427-1.307-.64-2.16-.64-2.08 0-3.12 1.133-3.12 3.4v5.68c0 1.066.293 1.84.88 2.32.586.48 1.333.72 2.24.72.88 0 1.6-.254 2.16-.76.586-.507.88-1.267.88-2.28v-5.68zm9.049-1.2c0-2.8 1.133-4.72 3.4-5.76 1.093-.534 2.373-.8 3.84-.8 1.253 0 2.307.16 3.16.48v-8.08h4.36v28l-2.2.2c-1.733.186-3.093.28-4.08.28-.987 0-1.92-.094-2.8-.28a10.958 10.958 0 01-2.56-.92 5.46 5.46 0 01-2.28-2.12c-.56-.934-.84-2.08-.84-3.44v-7.56zm10.4-1.44c-.96-.454-1.853-.68-2.68-.68-.96 0-1.76.306-2.4.92-.64.613-.96 1.546-.96 2.8v6.24c0 .693.373 1.266 1.12 1.72.747.453 1.693.68 2.84.68.72 0 1.413-.094 2.08-.28v-11.4zm22.813 15.28c-2.88.293-4.96.44-6.24.44-2.8 0-5.027-.52-6.68-1.56-1.653-1.04-2.48-2.92-2.48-5.64v-3.32c0-2.64.92-4.414 2.76-5.32.88-.427 1.88-.64 3-.64.987 0 1.96.133 2.92.4.96.266 1.733.56 2.32.88 0-.987-.4-1.654-1.2-2-.8-.374-1.827-.56-3.08-.56l.36-3.04c2.56 0 4.44.413 5.64 1.24 1.227.8 1.973 1.76 2.24 2.88.293 1.12.44 2.56.44 4.32v11.92zm-4.4-10.08c-.48-.347-1.16-.667-2.04-.96-.853-.32-1.64-.48-2.36-.48-.64 0-1.16.16-1.56.48-.4.32-.6.826-.6 1.52v2.2c0 2.426 1.427 3.64 4.28 3.64.827 0 1.587-.067 2.28-.2v-6.2zm20.093-17.92h4.96l4.6 19.36 4.48-19.36h5.08l-6.96 28h-5.16l-7-28zm33.057 28c-2.88.293-4.96.44-6.24.44-2.8 0-5.027-.52-6.68-1.56-1.653-1.04-2.48-2.92-2.48-5.64v-3.32c0-2.64.92-4.414 2.76-5.32.88-.427 1.88-.64 3-.64.987 0 1.96.133 2.92.4.96.266 1.733.56 2.32.88 0-.987-.4-1.654-1.2-2-.8-.374-1.827-.56-3.08-.56l.36-3.04c2.56 0 4.44.413 5.64 1.24 1.227.8 1.973 1.76 2.24 2.88.293 1.12.44 2.56.44 4.32v11.92zm-4.4-10.08c-.48-.347-1.16-.667-2.04-.96-.853-.32-1.64-.48-2.36-.48-.64 0-1.16.16-1.56.48-.4.32-.6.826-.6 1.52v2.2c0 2.426 1.427 3.64 4.28 3.64.827 0 1.587-.067 2.28-.2v-6.2zm18.76-2.52c0-1.067-.306-1.92-.92-2.56-.586-.667-1.386-1-2.4-1-.826 0-1.72.24-2.68.72v15.44h-4.36V56.09h3.88l.52.24c1.12-.374 2.28-.56 3.48-.56 1.334 0 2.494.24 3.48.72 1.067.48 1.894 1.2 2.48 2.16.614.96.92 2.173.92 3.64v13.84h-4.4v-12.6zm10.2-1.24c0-2.8 1.134-4.72 3.4-5.76 1.094-.534 2.374-.8 3.84-.8 1.254 0 2.307.16 3.16.48v-8.08h4.36v28l-2.2.2c-1.733.186-3.093.28-4.08.28-.986 0-1.92-.094-2.8-.28a10.974 10.974 0 01-2.56-.92 5.46 5.46 0 01-2.28-2.12c-.56-.934-.84-2.08-.84-3.44v-7.56zm10.4-1.44c-.96-.454-1.853-.68-2.68-.68-.96 0-1.76.306-2.4.92-.64.613-.96 1.546-.96 2.8v6.24c0 .693.374 1.266 1.12 1.72.747.453 1.694.68 2.84.68a7.7 7.7 0 002.08-.28v-11.4zm8.373-4.76h4.08l.32.16c1.094-.374 2.12-.56 3.08-.56.667 0 1.64.133 2.92.4l.8.16-1.04 4.28c-.746-.374-1.48-.56-2.2-.56-.986 0-1.826.306-2.52.92-.693.586-1.04 1.373-1.04 2.36v12.88h-4.4V56.09zm25.651 20.04c-2.88.293-4.96.44-6.24.44-2.8 0-5.026-.52-6.68-1.56-1.653-1.04-2.48-2.92-2.48-5.64v-3.32c0-2.64.92-4.414 2.76-5.32.88-.427 1.88-.64 3-.64.987 0 1.96.133 2.92.4.96.266 1.734.56 2.32.88 0-.987-.4-1.654-1.2-2-.8-.374-1.826-.56-3.08-.56l.36-3.04c2.56 0 4.44.413 5.64 1.24 1.227.8 1.974 1.76 2.24 2.88.294 1.12.44 2.56.44 4.32v11.92zm-4.4-10.08c-.48-.347-1.16-.667-2.04-.96-.853-.32-1.64-.48-2.36-.48-.64 0-1.16.16-1.56.48-.4.32-.6.826-.6 1.52v2.2c0 2.426 1.427 3.64 4.28 3.64.827 0 1.587-.067 2.28-.2v-6.2zm8.281-9.96h4.08l.32.16c1.093-.374 2.12-.56 3.08-.56.666 0 1.64.133 2.92.4l.8.16-1.04 4.28c-.747-.374-1.48-.56-2.2-.56-.987 0-1.827.306-2.52.92-.694.586-1.04 1.373-1.04 2.36v12.88h-4.4V56.09zm25.675 7.76c0-1.44-.32-2.467-.96-3.08-.613-.614-1.4-.92-2.36-.92-.507 0-1 .08-1.48.24-.48.133-.867.293-1.16.48v15.56h-4.4v-28h4.4v8.12c.933-.347 2.013-.52 3.24-.52 1.387 0 2.627.253 3.72.76 1.067.48 1.893 1.2 2.48 2.16.613.96.92 2.173.92 3.64v13.84h-4.4V63.85zm24.847 4.92c0 2.24-.614 4.093-1.84 5.56-1.227 1.466-3.08 2.2-5.56 2.2-2.48 0-4.36-.734-5.64-2.2-1.254-1.494-1.88-3.347-1.88-5.56v-5.28c0-2.534.64-4.467 1.92-5.8 1.306-1.36 3.173-2.04 5.6-2.04 2.32 0 4.133.706 5.44 2.12 1.306 1.386 1.96 3.293 1.96 5.72v5.28zm-4.36-5.28c0-1.414-.294-2.334-.88-2.76-.587-.427-1.307-.64-2.16-.64-2.08 0-3.12 1.133-3.12 3.4v5.68c0 1.066.293 1.84.88 2.32.586.48 1.333.72 2.24.72.88 0 1.6-.254 2.16-.76.586-.507.88-1.267.88-2.28v-5.68zm13.769 13.16c-4.053-.08-6.08-2.014-6.08-5.8V48.13h4.48v7.96h3.8l-.96 4.12h-2.84v10.64c0 .906.253 1.52.76 1.84.507.293 1.227.44 2.16.44l-1.32 3.52zm8.977-6.48c0 .746.2 1.333.6 1.76.426.4 1.04.6 1.84.6 1.226 0 2.866-.534 4.92-1.6l1.6 3.8c-.96.613-2.054 1.08-3.28 1.4-1.227.32-2.454.48-3.68.48-1.974 0-3.547-.48-4.72-1.44-1.147-.987-1.72-2.454-1.72-4.4v-8.2c0-2.16.666-3.84 2-5.04 1.36-1.2 3.146-1.8 5.36-1.8 2.213 0 3.933.6 5.16 1.8 1.253 1.173 1.88 2.813 1.88 4.92v6.08l-9.96.52v1.12zm5.52-7.64c0-.8-.254-1.414-.76-1.84-.507-.427-1.134-.64-1.88-.64-1.014 0-1.747.266-2.2.8-.454.533-.68 1.12-.68 1.76v2.4l5.52-.36v-2.12zm9.103-14.4h4.4v28h-4.4v-28zm10.703 0h4.4v28h-4.4v-28z" fill="#fff"/><path d="M3 37.63s9.788-9.87 22.5-12.5c8.112-1.679 19.742 3.652 28 3 15.863-1.255 17-26.5 36-27s17.027 21.235 37.5 24c18.297 2.47 34.552-13.757 53-14.5 17.374-.7 43.618 26.52 61 27 34.269.943 39.823-39.19 74-36.5 34.6 2.722 59.5 36.5 59.5 36.5" stroke="#fff" stroke-width="2"/><path d="M244.118 15.13h-1.353v23h1.353v-23z" fill="#fff"/><path d="M244.118 15.806h-6.765L236 16.82l1.353 1.014h6.765v-2.03zm-1.353 4.735h6.764l1.353-1.015-1.353-1.014h-6.764v2.03zM49.294 11.13h1.059v18h-1.059v-18z" fill="#fff"/><path d="M49.294 11.659h5.294l1.06.794-1.06.794h-5.294v-1.588zm1.059 3.706h-5.294L44 14.57l1.059-.794h5.294v1.588z" fill="#fff"/></svg>